<svg width="457" height="458" viewBox="0 0 457 458" fill="none" xmlns="http://www.w3.org/2000/svg">
<path d="M256.416 140.914C256.416 140.914 337.747 153.665 331.58 269.785C331.558 270.215 340.984 276.486 341.722 277.156C348.295 283.112 353.81 290.741 356.221 299.664C364.808 331.44 334.108 364.182 309.281 372.872C300.007 376.118 290.205 377.694 280.384 377.98C216.538 379.843 132.01 339.184 127.669 259.78C127.513 256.931 127.475 254.079 127.548 251.234C127.933 236.157 131.565 221.473 137.038 207.84C137.036 207.84 172.569 119.532 256.416 140.914Z" fill="#FFE4C0"/>
<g style="mix-blend-mode:multiply" opacity="0.5">
<path d="M333.639 271.011C332.758 273.173 331.878 275.937 331.633 277.517C330.583 284.296 332.898 291.295 336.918 296.326C340.736 301.104 346.189 304.202 351.469 305.37C353.252 305.765 355.411 305.967 357.299 306.03C355.316 286.4 339.364 274.623 333.639 271.011Z" fill="#FFE7E2"/>
</g>
<g style="mix-blend-mode:multiply" opacity="0.5">
<path d="M218.992 322.603C234.1 319.345 243.48 303.397 239.944 286.98C236.408 270.564 221.294 259.896 206.185 263.153C191.077 266.41 181.697 282.359 185.233 298.776C188.769 315.192 203.883 325.86 218.992 322.603Z" fill="#FFE7E2"/>
</g>
<path opacity="0.3" d="M292.953 276.683C292.953 276.683 305.855 264.384 315.843 275.948Z" fill="#CBA284"/>
<path d="M172.655 337.969C129.704 359.537 90.7253 305.458 103.213 275.057C111.179 255.666 134.402 254.157 147.858 271.869C155.8 282.323 162.225 295.684 165.873 308.467" fill="#FFE4C0"/>
<path opacity="0.3" d="M137.282 289.71C142.808 295.343 147.25 303.699 152.71 308.359C151.701 300.56 150.091 292.232 146.31 285.205C142.471 278.067 135.49 272.187 128.382 272.672C119.572 273.273 112.318 283.553 111.385 292.874C111.943 287.296 123.141 283.521 127.415 284.049C134.108 296.688 136.698 321.599 136.698 321.599C142.274 307.496 140.017 296.404 137.282 289.71Z" fill="#CBA284"/>
<path d="M339.43 174.341C338.89 163.658 334.973 147.572 322.508 151.296C320.322 151.948 318.403 153.381 316.93 155.241C316.359 153.106 315.527 150.975 314.486 148.873C311.599 143.042 303.727 140.726 298.577 144.337C297.388 145.172 296.407 146.192 295.577 147.305C283.252 137.806 270.028 129.622 255.618 124.847C234.599 117.88 211.727 118.479 190.597 125.038C188.331 125.741 186.083 126.514 183.853 127.348C162.797 135.234 141.504 148.544 127.629 167.677C114.015 186.448 106.966 209.712 104.631 233.28C103.956 240.076 103.607 246.913 103.618 253.748C103.618 254.409 103.618 250.525 103.824 258.394C109.808 244.758 133.333 247.547 133.333 247.547L146.953 263.042C150.242 267.233 153.806 293.084 158.005 290.004L159.862 289.074C162.753 286.953 161.177 270.234 161.092 266.443C160.539 241.512 170.779 215.485 187.39 200.303C204.275 184.871 228.783 178.93 251.198 177.533C270.013 176.361 288.335 181.1 304.597 191.509C309.814 194.848 314.778 198.69 319.338 203.021C319.666 203.333 324.152 208.338 324.345 208.237C335.363 202.56 339.631 188.899 339.494 176.423C339.487 175.757 339.466 175.06 339.43 174.341Z" fill="#211E1E"/>
<path d="M255.618 124.85C270.028 129.625 283.252 137.809 295.577 147.308C296.215 146.448 296.98 145.678 297.828 144.981C296.143 146.901 294.818 149.391 293.701 151.762C288.727 147.553 282.464 145.237 276.18 147.165C270.168 149.011 265.923 154.106 263.37 160.081C249.03 151.451 233.682 148.16 216.068 151.481C194.979 155.458 176.548 170.123 164.309 188.938C147.829 214.274 147.643 262.233 160.053 288.805C159.753 289.089 160.053 288.805 158.014 290.407C153.816 293.487 148.409 271.41 136.337 265.212C130.972 262.216 117.393 259.572 106.002 271.72C103.618 260.873 103.618 255.915 103.618 250.336C103.607 243.591 103.947 240.168 104.604 233.547L104.631 233.283C106.966 209.715 114.015 186.451 127.629 167.681C141.504 148.547 162.797 135.237 183.853 127.352C186.083 126.517 188.331 125.744 190.597 125.041C211.727 118.482 234.599 117.883 255.618 124.85Z" fill="#151414"/>
<path d="M276.063 256.482C276.045 265.634 270.293 273.064 258.343 271.545C249.74 269.635 245.191 266.076 245.21 256.478C245.229 246.422 249.988 239.75 258.407 238.403C271.322 236.336 276.08 247.33 276.063 256.482Z" fill="#128001"/>
<path d="M323.2 254.294C323.189 261.591 320.211 269.428 312.59 268.529C306.193 267.774 304.559 258.462 304.567 253.878C304.58 245.86 308.201 238.284 313.486 238.272C319.169 238.259 323.212 246.997 323.2 254.294Z" fill="#128001"/>
<path d="M312.345 245.153C312.602 244.157 313.976 244.075 314.26 245.039L315.411 248.942C315.547 249.402 315.993 249.683 316.471 249.61L318.5 249.298C319.319 249.172 319.883 250.046 319.455 250.777L317.352 254.36C317.207 254.608 317.169 254.903 317.248 255.171L318.357 258.932C318.651 259.93 317.402 260.715 316.683 259.985L315.798 259.085C315.39 258.671 314.702 258.722 314.32 259.195L311.876 262.22C311.255 262.99 310.057 262.55 310.127 261.577L310.486 256.53C310.506 256.246 310.407 255.973 310.214 255.776L307.427 252.945C306.859 252.367 307.221 251.351 308.041 251.225L310.214 250.891C310.624 250.828 310.964 250.517 311.069 250.109L312.345 245.153Z" fill="white"/>
<path d="M260.298 243.874C260.636 243.045 261.809 243.043 262.149 243.871L264.613 249.878C264.785 250.297 265.216 250.547 265.665 250.49L270.347 249.889C271.261 249.771 271.833 250.849 271.224 251.541L267.59 255.67C267.339 255.955 267.271 256.358 267.415 256.71L269.607 262.053C269.982 262.969 268.942 263.816 268.122 263.262L264.223 260.628C263.853 260.378 263.362 260.403 263.02 260.691L256.868 265.856C256.168 266.444 255.111 265.863 255.235 264.957L256.109 258.518C256.16 258.141 255.993 257.768 255.678 257.555L251.124 254.478C250.36 253.962 250.642 252.775 251.557 252.657L256.421 252.033C256.779 251.987 257.084 251.752 257.22 251.418L260.298 243.874Z" fill="white"/>
<path d="M268.784 218.755C260.567 216.307 251.171 218.293 244.318 223.891C242.108 225.695 241.097 229.271 242.834 231.853C244.438 234.242 247.771 235.339 250.137 233.404C250.846 232.824 251.578 232.282 252.344 231.791C252.582 231.638 253.22 231.394 253.443 231.151C253.556 231.095 253.667 231.039 253.783 230.986C254.496 230.655 255.222 230.361 255.961 230.105C256.384 229.959 256.808 229.827 257.237 229.706C257.372 229.668 257.508 229.633 257.645 229.598C258.01 229.582 258.444 229.441 258.781 229.394C259.22 229.332 259.659 229.285 260.101 229.251C260.873 229.191 261.647 229.17 262.419 229.191C262.527 229.194 262.633 229.2 262.741 229.205C263.152 229.26 263.564 229.305 263.974 229.375C264.846 229.524 265.705 229.734 266.556 229.986C269.212 230.778 272.367 228.464 272.824 225.535C273.323 222.311 271.629 219.603 268.784 218.755Z" fill="#171717"/>
<path d="M325.375 225.069C321.379 221.693 316.331 220.078 311.409 220.463C310.081 220.568 308.712 221.426 307.927 222.526C307.153 223.609 306.694 225.294 306.949 226.699C307.214 228.157 307.877 229.628 309.05 230.536C310.239 231.457 311.556 231.903 312.998 231.792C313.235 231.773 313.471 231.782 313.709 231.776C314.432 231.841 315.147 231.967 315.857 232.145C316.692 232.453 317.497 232.839 318.275 233.3C318.539 233.495 318.813 233.676 319.066 233.889C320.161 234.813 321.67 235.291 323.015 235.145C324.303 235.005 325.756 234.219 326.497 233.08C327.266 231.9 327.748 230.409 327.475 228.907C327.204 227.409 326.532 226.047 325.375 225.069Z" fill="#171717"/>
<mask id="mask0_101_539" style="mask-type:alpha" maskUnits="userSpaceOnUse" x="219" y="284" width="127" height="72">
<path d="M311.258 303.751C317.042 303.911 322.589 302.253 327.365 297.277C329.865 294.676 332.399 293.244 335.985 295.469C344.571 300.798 346.593 314.112 344.285 323.038C341.751 332.833 334.118 340.73 325.321 345.88C301.651 359.739 283.495 356.62 259.273 347.761C240.208 340.79 214.432 326.736 220.965 302.55C229.057 272.604 263.928 286.982 283.603 295.06C291.957 298.493 301.918 303.491 311.258 303.751Z" fill="white"/>
</mask>
<g mask="url(#mask0_101_539)">
<path fill-rule="evenodd" clip-rule="evenodd" d="M232.288 337.014L257.068 274.332L260.517 275.702L235.738 338.384L232.288 337.014ZM283.204 357.267L300.32 291.494L303.91 292.433L286.794 358.206L283.204 357.267ZM334.145 341.386L324.701 293.165L328.341 292.449L337.785 340.67L334.145 341.386Z" fill="#D1D3D4"/>
</g>
<path d="M310.232 303.436C312.096 304.509 325.133 288.1 333.813 293.092C336.743 294.777 338.978 297.651 340.657 300.757C344.346 307.589 345.608 315.89 344.122 323.547C342.019 334.374 334.731 343.238 326.157 349.113C303.087 364.918 284.786 361.93 260.163 352.781C240.781 345.581 214.374 330.758 219.845 304.016C229.475 256.941 310.207 303.423 310.232 303.436Z" fill="#873C41"/>
<path d="M243.441 300.426C249.711 304.327 257.344 304.73 264.191 303.174C265.501 302.875 266.553 303.977 266.879 305.244C270.222 318.262 289.176 325.057 298.682 316.71C299.42 316.061 300.728 315.908 301.501 316.642C306.631 321.521 314.851 322.844 320.887 319.544C329.411 314.883 329.369 301.788 327.048 292.669C319.535 294.969 311.648 304.251 310.231 303.433C310.212 303.421 260.653 274.897 234.561 285.187C235.114 291.509 238.01 297.047 243.441 300.426Z" fill="white"/>
<path d="M314.526 351.065C300.97 338.596 284.302 331.632 267.401 326.69C252.945 322.463 236.669 319.723 222.037 323.918C228.818 338.504 246.264 347.614 260.163 352.778C281.702 360.781 298.404 364.069 317.69 354.189C316.639 353.144 315.615 352.067 314.526 351.065Z" fill="#EE7E8B"/>
</svg>
